# xmcd
#
# Track frame offsets:
#	207
#	11790
#	30347
#	43417
#	65817
#	78152
#	94975
#	107950
#	124100
#	138302
#	158270
#	170682
#	182657
#	205685
#
# Disc length: 3064
#
# Revision: 1
# Processed by: cddbd v1.5.1PL0 Copyright (c) Steve Scherf et al.
# Submitted via: audiograbber 1.80
# Normalized: r0:TDELIM( - )
#
DISCID=ba0bf60e
DTITLE=Various Artist - The Texas Country Bluesmen Back Against the Wall
DYEAR=1900
DGENRE=
TTITLE0=Texas Alexander - Crossroads
TTITLE1=Terrapin Jackson - Sidetrack Blues
TTITLE2=Frankie Lee Sims - Singleman Blues
TTITLE3=Brother and Sister - Homeless
TTITLE4=Mance Lipscomb - So Different Blues
TTITLE5=Johnny Winter - Kind Hearted Woman
TTITLE6=Johnny Copeland - Remus Hound
TTITLE7=Guitar Harp - Tuskegee Boogie
TTITLE8=Loudmouth Johnson - Once I Had a Woman
TTITLE9=Juke Boy Bonner - I Didn't Give 'Em No Answer
TTITLE10=Mance Lipscomb - Gee Blues
TTITLE11=Wright Holmes - Good Road Blues
TTITLE12=Brother and Sister - Back Against The Wall
TTITLE13=Pops Overstreet - Downtown Boogie
EXTD=
EXTT0=
EXTT1=
EXTT2=
EXTT3=
EXTT4=
EXTT5=
EXTT6=
EXTT7=
EXTT8=
EXTT9=
EXTT10=
EXTT11=
EXTT12=
EXTT13=
PLAYORDER=
